<mxfile host="app.diagrams.net" modified="2023-05-09T06:07:15.110Z" agent="Mozilla/5.0 (Windows NT 10.0; Win64; x64) AppleWebKit/537.36 (KHTML, like Gecko) Chrome/110.0.0.0 Safari/537.36" etag="WsZJmvf_eEiCPXR1w0Fc" version="21.1.8" type="device">
  <diagram name="Trang-1" id="cdYuANwi7dHKqLGPY8PH">
    <mxGraphModel dx="1194" dy="643" grid="1" gridSize="10" guides="1" tooltips="1" connect="1" arrows="1" fold="1" page="1" pageScale="1" pageWidth="827" pageHeight="1169" math="0" shadow="0">
      <root>
        <mxCell id="0" />
        <mxCell id="1" parent="0" />
        <mxCell id="x-2nlr-x33yobzhk8QOq-4" style="edgeStyle=orthogonalEdgeStyle;rounded=0;orthogonalLoop=1;jettySize=auto;html=1;" edge="1" parent="1" source="x-2nlr-x33yobzhk8QOq-1" target="x-2nlr-x33yobzhk8QOq-3">
          <mxGeometry relative="1" as="geometry" />
        </mxCell>
        <mxCell id="x-2nlr-x33yobzhk8QOq-1" value="Đọc dữ liệu đầu vào CSV" style="ellipse;whiteSpace=wrap;html=1;aspect=fixed;strokeColor=#000000;" vertex="1" parent="1">
          <mxGeometry x="375" y="60" width="100" height="100" as="geometry" />
        </mxCell>
        <mxCell id="x-2nlr-x33yobzhk8QOq-5" style="edgeStyle=orthogonalEdgeStyle;rounded=0;orthogonalLoop=1;jettySize=auto;html=1;" edge="1" parent="1" source="x-2nlr-x33yobzhk8QOq-3" target="x-2nlr-x33yobzhk8QOq-6">
          <mxGeometry relative="1" as="geometry">
            <mxPoint x="425" y="330" as="targetPoint" />
          </mxGeometry>
        </mxCell>
        <mxCell id="x-2nlr-x33yobzhk8QOq-3" value="Chuyển đổi sang DataFrame với Schema xác định được" style="rounded=1;whiteSpace=wrap;html=1;absoluteArcSize=1;arcSize=14;strokeWidth=2;" vertex="1" parent="1">
          <mxGeometry x="340" y="180" width="170" height="80" as="geometry" />
        </mxCell>
        <mxCell id="x-2nlr-x33yobzhk8QOq-8" style="edgeStyle=orthogonalEdgeStyle;rounded=0;orthogonalLoop=1;jettySize=auto;html=1;entryX=0.5;entryY=0;entryDx=0;entryDy=0;" edge="1" parent="1" source="x-2nlr-x33yobzhk8QOq-6" target="x-2nlr-x33yobzhk8QOq-7">
          <mxGeometry relative="1" as="geometry" />
        </mxCell>
        <mxCell id="x-2nlr-x33yobzhk8QOq-6" value="Xắp xếp theo ID người dùng" style="rounded=1;whiteSpace=wrap;html=1;absoluteArcSize=1;arcSize=14;strokeWidth=2;" vertex="1" parent="1">
          <mxGeometry x="332.5" y="290" width="185" height="80" as="geometry" />
        </mxCell>
        <mxCell id="x-2nlr-x33yobzhk8QOq-9" style="edgeStyle=orthogonalEdgeStyle;rounded=0;orthogonalLoop=1;jettySize=auto;html=1;entryX=0.5;entryY=0;entryDx=0;entryDy=0;" edge="1" parent="1" source="x-2nlr-x33yobzhk8QOq-7" target="x-2nlr-x33yobzhk8QOq-10">
          <mxGeometry relative="1" as="geometry">
            <mxPoint x="425" y="560" as="targetPoint" />
          </mxGeometry>
        </mxCell>
        <mxCell id="x-2nlr-x33yobzhk8QOq-7" value="Lưu dữ liệu trong bộ nhớ cache" style="rounded=1;whiteSpace=wrap;html=1;absoluteArcSize=1;arcSize=14;strokeWidth=2;" vertex="1" parent="1">
          <mxGeometry x="332.5" y="390" width="185" height="80" as="geometry" />
        </mxCell>
        <mxCell id="x-2nlr-x33yobzhk8QOq-11" style="edgeStyle=orthogonalEdgeStyle;rounded=0;orthogonalLoop=1;jettySize=auto;html=1;entryX=0;entryY=0.5;entryDx=0;entryDy=0;" edge="1" parent="1" source="x-2nlr-x33yobzhk8QOq-10" target="x-2nlr-x33yobzhk8QOq-12">
          <mxGeometry relative="1" as="geometry">
            <mxPoint x="425" y="680" as="targetPoint" />
          </mxGeometry>
        </mxCell>
        <mxCell id="x-2nlr-x33yobzhk8QOq-10" value="Lọc và tách tập train và tập test, tập test là dữ liệu người dùng từ 71 và items từ 401" style="rounded=1;whiteSpace=wrap;html=1;absoluteArcSize=1;arcSize=14;strokeWidth=2;" vertex="1" parent="1">
          <mxGeometry x="332.5" y="520" width="185" height="80" as="geometry" />
        </mxCell>
        <mxCell id="x-2nlr-x33yobzhk8QOq-14" style="edgeStyle=orthogonalEdgeStyle;rounded=0;orthogonalLoop=1;jettySize=auto;html=1;entryX=0;entryY=0.5;entryDx=0;entryDy=0;" edge="1" parent="1" source="x-2nlr-x33yobzhk8QOq-12" target="x-2nlr-x33yobzhk8QOq-15">
          <mxGeometry relative="1" as="geometry">
            <mxPoint x="425" y="810" as="targetPoint" />
          </mxGeometry>
        </mxCell>
        <mxCell id="x-2nlr-x33yobzhk8QOq-12" value="Tạo mô hình ALS" style="rounded=1;whiteSpace=wrap;html=1;absoluteArcSize=1;arcSize=14;strokeWidth=2;" vertex="1" parent="1">
          <mxGeometry x="580" y="520" width="185" height="80" as="geometry" />
        </mxCell>
        <mxCell id="x-2nlr-x33yobzhk8QOq-17" style="edgeStyle=orthogonalEdgeStyle;rounded=0;orthogonalLoop=1;jettySize=auto;html=1;entryX=0.5;entryY=1;entryDx=0;entryDy=0;entryPerimeter=0;" edge="1" parent="1" source="x-2nlr-x33yobzhk8QOq-15" target="x-2nlr-x33yobzhk8QOq-19">
          <mxGeometry relative="1" as="geometry">
            <mxPoint x="1012.5" y="410" as="targetPoint" />
            <Array as="points" />
          </mxGeometry>
        </mxCell>
        <mxCell id="x-2nlr-x33yobzhk8QOq-15" value="Đánh giá kết quả bằng Mean Square Error(MSE)" style="rounded=1;whiteSpace=wrap;html=1;absoluteArcSize=1;arcSize=14;strokeWidth=2;" vertex="1" parent="1">
          <mxGeometry x="827" y="520" width="185" height="80" as="geometry" />
        </mxCell>
        <mxCell id="x-2nlr-x33yobzhk8QOq-19" value="Hiển thị kết quả" style="strokeWidth=2;html=1;shape=mxgraph.flowchart.start_2;whiteSpace=wrap;" vertex="1" parent="1">
          <mxGeometry x="869.5" y="350" width="100" height="100" as="geometry" />
        </mxCell>
      </root>
    </mxGraphModel>
  </diagram>
</mxfile>
